<?xml version="1.0" encoding="utf-8"?>
<!-- Generator: Adobe Illustrator 18.1.0, SVG Export Plug-In . SVG Version: 6.00 Build 0)  -->
<svg version="1.1" id="happyend-svg" xmlns="http://www.w3.org/2000/svg" xmlns:xlink="http://www.w3.org/1999/xlink" x="0px" y="0px"
	 viewBox="0 0 500 500" enable-background="new 0 0 500 500" xml:space="preserve">
<g>
	<g>
		<path d="M427.8,13.2c-8.5,21.6-16.9,43.3-25.7,64.9c-1,2.5-3.6,4.4-5.7,6.3c-28.3,25-56.5,50-85,74.8c-4.3,3.7-6,7.7-5.8,13.3
			c0.3,14,0.1,28,0.1,42c0,2.4,0.2,4.8,0.4,9.4c5.2-4.4,9.4-7.5,13-11c4.9-4.8,10.3-6.8,17.3-6.7c17.8,0.5,35.5,0.3,53.3,0.1
			c5.2-0.1,7.6,1.7,8.3,7c1.7,11.6,3.9,23.2,5.8,34.8c0.2,1.2-0.1,2.6-0.3,6.2c-3.5-2.9-6.2-4.4-7.8-6.7c-5.7-8.2-11-16.6-16.9-25.6
			c-2.7,2.1-4.8,3.5-6.7,5.2C352,245,332,262.9,311.7,280.5c-4.4,3.8-6.3,8-6.1,13.8c0.3,12.6,0.1,25.3,0.1,38c0,2.5,0.4,5,0.6,7.6
			c0.7,0.4,1.3,0.7,2,1.1c6.7-7.7,13.4-15.5,20.1-23.2c0.9,0.5,1.8,1,2.6,1.6c0.8,11.6,1.4,23.3,2.5,34.9c0.7,6.8,1.4,13.8,3.8,20.1
			c3.8,9.9,11.6,15.2,22.8,15.1c10.2-0.1,20.4,0.3,30.6,1c3.9,0.3,7.6,2.2,11.5,3.3c-0.1,0.7-0.3,1.4-0.4,2
			c-1.9,0.1-3.7,0.4-5.6,0.4c-28,0-56,0-83.9,0c-8.1,0-8.5-0.5-8.5-8.9c0-29.8,0-59.5,0-89.3c0-2.6,0-5.2,0-9.6
			c-3.3,2.5-5.2,3.8-6.9,5.3c-23.5,20.7-46.8,41.6-70.5,62.1c-8.4,7.3-4.9,15.9-3.9,24c0.9,7.4,5.9,12.3,13.6,13.6
			c5.3,0.9,10.6,1.5,15.9,2.2c0,0.8,0,1.5,0,2.3c-2.1,0.3-4.3,0.8-6.4,0.8c-20,0.1-40,0.2-59.9-0.1c-5.5-0.1-9.6,1.7-13.7,5.3
			c-30.5,27.2-61.1,54.2-91.7,81.3c-0.8,0.7-1.7,1.2-4,2.9c1.4-3.3,2-5.1,2.8-6.8c18.2-34.8,36.3-69.7,54.6-104.4
			c1.8-3.4,4.5-6.6,7.5-9.1c52.2-45.5,104.5-91,156.8-136.3c4.3-3.7,6-7.5,5.9-13.1c-0.2-47.3-0.1-94.6-0.1-141.9c0-2.4,0-4.7,0-7.1
			c0.6,0,1.2,0,1.7,0c0,14.8,0,29.7,0,44.5c0.7,0.4,1.4,0.8,2.1,1.2c39.6-34.2,79.2-68.4,118.8-102.7C427,12.7,427.4,13,427.8,13.2z
			"/>
		<path d="M146.2,77.5c29.8,0,59.7,0,91.8,0c-2.5,3.4-3.5,5.8-5.4,7c-11.1,7.2-15.4,17.1-15.2,30.4c0.4,21.3-0.4,42.6-1.2,63.9
			c-0.3,6.9,2.4,8.9,8.8,8.8c13.5-0.3,27-0.1,41.8-0.1c-5.5,6.6-10.2,11.2-18.4,10.8c-8.4-0.4-16.9,0.1-25.3-0.1
			c-5-0.1-7.1,1.8-7,7.1c0.3,11.3,0.4,22.7-0.2,34c-0.2,3.5-2,7.8-4.5,10.2c-9.1,8.8-18.8,16.9-29.1,26c-0.2-2.5-0.5-4.1-0.5-5.7
			c0.5-51.7,1-103.4,1.4-155.2c0-5.8-0.3-11.5-0.9-17.3c-1.1-10.9-6-15.2-16.9-15.5c-4.4-0.1-8.9,0.2-13.3-0.2
			c-2.3-0.2-4.5-1.4-6.7-2.2C145.7,78.9,146,78.2,146.2,77.5z"/>
	</g>
</g>
</svg>
