<?xml version="1.0" encoding="utf-8"?>
<!-- Generator: Adobe Illustrator 18.1.0, SVG Export Plug-In . SVG Version: 6.00 Build 0)  -->
<svg version="1.1" id="logo" xmlns="http://www.w3.org/2000/svg" xmlns:xlink="http://www.w3.org/1999/xlink" x="0px" y="0px"
	 viewBox="0 0 500 500" enable-background="new 0 0 500 500" xml:space="preserve">
<g id="global">
	<g>
		<path fill="#FFFFFF" d="M498.1,330c-1.1-11.8-3.4-23.3-7.7-34.3c-4.6-11.6-10.7-22.5-18.5-32.4c-7.6-9.6-16.3-18.2-26.2-25.4
			c-7.3-5.4-15-10.1-23.3-14.1s-16.8-7.4-25.7-9.7c-12.5-3.2-25.1-4.3-37.9-2.2c-0.8,0.1-1.7-0.3-2.5-0.5c0.2-0.7,0.3-1.5,0.7-2.1
			c0.4-0.7,1.2-1.3,1.7-1.9c1.3-1.4,2.6-2.7,4-4c23.1-23,46.2-46.1,69.2-69.1c7.1-7.1,14.4-14,20.9-21.6c9-10.6,6.7-24.8-1.6-32.9
			c-9.4-9.1-19.6-17.5-29.4-26.1C406.4,40.2,391,26.6,375.7,13c-0.8-0.7-4.3-3.3-5.4-3.9c-1.7-0.8-3.4-1.8-5.2-2.2
			c-1.7-0.4-3.4-0.3-5.1-0.2c-1.6,0.1-3.2,0.4-4.8,0.8c-3.1,0.9-5.9,2.4-8.2,4.7c-15,14.8-91.6,90.8-100.7,100
			c-0.7,0.7-5.8,6.3-5.8,6.3l4.3,4.3c0,0,9.6-11.3,10.7-11.5c1-0.2,1.3,1,1.4,1.8c0.1,3.5,0.2,7.1,0.2,10.6c0,20.6,0,41.2,0.1,61.7
			c0.1,20.3,0.2,40.6,0.2,61c0,1.9-0.8,4.3-2.1,5.7c-1.9,2.1-12.6,13.1-16.1,16.6c-3.5,3.4-12.2,11-13.3,11.8
			c-0.1-1-0.4-12-0.4-14.7c0-24,0.1-103.4,0.2-111.2c0.1-9.4,7.7-21.3,14.4-27.9c-0.5-0.5-3.4-3.7-3.9-4.3c-3.3,3.2-4.1,4-7,6.8
			c-0.7,0.7-2.6,2.3-3.5,2.9c0-1.1,0-2.1,0-4.3c-0.5-18.4,0-99.9,0-103.8c0-2.7-1-5.2-3.6-6.3c-2.7-1.1-4.9,0.2-6.8,2.1
			C209.9,25.2,60.4,174.1,52.4,182c-0.9,0.9-1.9,2-1.5,3.4c0.4,1.2,1.4,2,2.7,2c1.2,0,2.3-0.6,3.4-1c1.3-0.5,2.5-1,3.8-1.4
			c5.9-1.8,12.2-2.8,18.3-3.5c11.6-1.5,24-2.9,35.7-1.1c5.6,0.9,11.1,2.6,16.3,4.7c27.9,11.5,50,31.8,56.5,62.2
			c1.7,8.1,2.1,16.4,3.1,24.6c0.2,1.5,0.4,3.2,2.2,3.3c1.9,0.1,2.5-1.5,2.5-3.2c0-2.9,0-5.8,0-8.7c0-5.1-0.2-10.2-0.8-15.3
			s-1.4-10.1-2.2-15.1c-1.9-12.3-4.6-24.5-9.2-36.1c-2.9-7.2-6.3-14.2-9.7-21.1c-5.7-11.7-14-21.5-23-30.7
			c-7.8-7.9-16.8-14.2-26.7-19.2c-3.5-1.8-3.8-3.8-1.2-6.6c1.8-1.9,3.8-3.7,5.7-5.5c6.4-6.4,12.7-12.8,19.2-19.1
			c4.1-4,8.8-4.3,13.3-0.7c3.3,2.7,6.7,5.4,9.6,8.5c13.4,14.3,23.1,30.9,30.2,49.1c4.8,12.4,9,25,11.3,38.2
			c1.9,10.6,4.1,21.1,5.5,31.7c2.7,20.2,2.9,40.5,2.9,60.8c0,3.5-1.2,6.1-3.6,8.5c-7.4,7.3-14.7,14.7-22.1,22
			c-13.8,13.7-27.7,27.2-41.2,41.1c-8.5,8.7-11,19.3-7.7,31.1c2.1,7.7,5.2,15,8.8,22.1c9.4,18.7,21.4,35.4,37.1,49.3
			c1.8,1.6,3.7,3.3,6,5.4c-0.4-0.1-0.9-0.1-1.4-0.2s-1-0.6-1.4-0.9c-1.2-0.8-2.4-1.6-3.6-2.4c-2.5-1.7-4.9-3.3-7.3-5.2
			c-22.7-17.4-39.5-39.6-51.9-65.3c-7.7-16-12.9-32.8-16.9-50.1c-1.5-6.6-2-13.4-2.9-20.2c-0.3-2.1-0.4-4.2-0.5-6.4
			c-0.1-1.7-0.1-3.4-0.5-5c-0.3-1.4-0.8-2.7-1.5-4c-1.1-2-2.9-4.5-5.2-5c-4.6-0.9-8.8-0.3-12.3,3.3c-5.6,5.7-11.4,11.3-17.1,16.9
			c-21.4,21.3-42.9,42.7-64.3,64c-1.5,1.5-3,2.9-4.4,4.4c-0.7,0.7-1.4,1.4-2,2.1c-0.7,0.7-1.4,1.4-2,2.2c-0.6,0.9-0.9,2.5-0.3,3.5
			c1,1.5,2.9,1,4.1,0.1c1.5-1.2,3.2-2.2,4.8-3.3c1.5-1,2.8-2.3,4.3-3.2c2.9-1.8,6.3-2.6,9.7-3.2c2.8-0.4,5.6-0.6,8.4-0.4
			c4.9,0.4,9.6,1.6,14.2,3.4c2.3,0.9,4.6,1.9,6.9,2.9c2.3,1.1,4.6,2.2,6.8,3.5c11.2,6.8,22.3,13.8,33.3,20.9
			c13.9,9.1,27.6,18.4,41.4,27.6c0.9,0.6,4.7,3,5.9,3.7c4.3,2.4,8.5,4.9,12.8,7.4c19.8,11.4,40.5,20.8,62.3,27.9
			c3.1,1,6.2,1.8,9.3,2.7c4.5,1.3,8.9,2.6,13.7,4c0-2.1,0.1-8.8,0.1-8.8s-3.6-1.2-5.2-2.1c-7.3-4.1-12.3-7.5-19-12.4
			c-15.3-11.3-25.7-26.4-32-44.3c-4.2-11.7-6.1-23.8-6.1-36.2c0-17.1,3.7-33.4,10.9-49c6.8-14.8,17.5-26.5,29.1-37.6
			c0.5-0.5,1.4-0.6,2.1-1c0.3,0.8,0.8,1.5,0.9,2.4c0,1,0.1,1.9,0.1,2.9c0,2,0.9,135.5,0.9,135.5h4.5c0,0-0.5-125.8-0.2-144.4
			c0-1.9,1-4.1,2.3-5.6c4.5-5.1,9.2-10,14-14.9c4.2-4.2,8.5-8.2,12.8-12.3c0.6-0.6,1.4-0.9,2.1-1.3c0.3,0.1,0.6,0.2,0.9,0.4v78.9
			h4.1c0,0-0.1-19.3,0-28.9c0-3.3,0.8-6.3,3.9-8.2c17.4-11.1,36.2-17.5,57-16.5c2.6,0.1,24.2,3.7,26.5,4.4
			c10.7,3.2,20.3,8.5,29.2,15c9.9,7.3,18,16.4,24.6,26.8c8.4,13.5,13.5,28,14.4,43.9c0.8,14.3-1.3,28.1-6.2,41.6
			c-7.2,19.9-19.8,35.6-36.7,47.9c-23.6,17-50.5,23.9-79.2,24.2c-8,0.1-16.1-0.5-24-1.7c-8.1-1.2-24-5.3-24-5.3l-0.1,8
			c0,0,6.5,1,9.2,1.4c14,2.3,28,3.2,42.2,2.9c8.5-0.2,16.9-0.4,25.4-1c5.5-0.4,11-1.5,16.4-2.5c21.4-3.9,42.2-9.8,62-19.1
			c23-10.9,43.8-25,61-44c11.1-12.3,20.1-25.9,26.4-41.2C497.1,367.6,499.9,349.2,498.1,330z M458.3,330.7c-0.1,0.3-0.4,0.5-0.6,0.8
			c-0.4-2-0.6-3.6-1-5.2c-4.6-18.5-12-31.3-13.9-34.1c-6.3-9.6-14.2-17.8-23.3-24.7c-3.8-2.9-7.8-5.5-11.9-7.9
			c-7.4-4.2-15.2-7.6-23.2-10.4c-2.3-0.8-4.8-1.2-7.2-1.7c-2.4-0.5-4.7-0.9-7.1-1.5c-8.4-2.2-16.9-2.5-25.5-2.3
			c-11.8,0.3-23.1,2.9-34,7.2c-6.3,2.5-10.5,7.4-15.1,11.9c-10.2,10-20.4,20.1-30.6,30.1c-0.6,0.6-1.5,0.7-2.3,1.1
			c-0.3-0.8-0.9-1.6-0.9-2.4c0-3.2,0-6.5,0-9.7c0-5.7,0-11.4,0.1-17.1c0-2.9,0.1-5.7,0.2-8.6c0.1-2.2,1-4.5,2.6-6.1
			c21.2-21.6,81.4-82.5,82.1-83.3c-0.7-0.7-1.4-1.4-2.2-2c-15,14.7-76.3,75-79.4,77.9c-0.7,0.7-1.5,1.2-2.3,1.8
			c-0.3-0.1-0.7-0.2-1-0.2c0-2.1,0-4.2,0-6.3c0.1-16,0.1-32,0.2-48.1c0-5.8,0.1-11.6,0.1-17.4c0.1-10.4,0.1-20.7,0.1-31.1
			c0-10.4,0-20.7,0.1-31.1c0-2.5,0.6-5,1.8-7.2c1.2-2.2,18.9-19.8,23-23.8c8.5-8.3,17.1-7.9,26.3-1.1c6.3,4.7,11.9,10.5,17.8,15.7
			c7,6.1,14.2,11.9,21.2,18.1c7.8,7.1,15.8,14.1,22.9,21.8c3.4,3.7,5.7,8.7,7.3,13.6c2.8,8.6,0.4,16.8-3.5,24.7
			c-5.9,11.8-14.5,21.6-23.6,30.9c-9.3,9.6-18.9,19-28.4,28.4c-2.5,2.5-5.2,4.9-7.9,7.5c0.4,2.1,2,1.5,3.6,1.4
			c7.3-0.8,14.6-2,22-2.2c12.1-0.4,24,1.3,35.6,4.8c3.5,1.1,6.8,2.4,10.3,3.6c19.1,6.2,43.6,26.1,54,43.8c1.3,2.3,2.7,4.5,3.9,6.9
			c0.5,1.1,2.3,4.6,2.6,5.3c4,8.6,6.4,17.6,7.4,26.9C458.5,329.7,458.5,330.3,458.3,330.7z"/>
	</g>
</g>
</svg>
