<?xml version="1.0" encoding="utf-8"?>
<!-- Generator: Adobe Illustrator 18.1.0, SVG Export Plug-In . SVG Version: 6.00 Build 0)  -->
<svg version="1.1" id="happyend-svg" xmlns="http://www.w3.org/2000/svg" xmlns:xlink="http://www.w3.org/1999/xlink" x="0px"
	 y="0px" viewBox="0 0 640 960" enable-background="new 0 0 640 960" xml:space="preserve">
<g>
	<linearGradient id="SVGID_1_" gradientUnits="userSpaceOnUse" x1="292.2539" y1="304.9795" x2="351.3214" y2="304.9795">
		<stop  offset="0" style="stop-color:#1ABC9C"/>
		<stop  offset="1" style="stop-color:#000000"/>
	</linearGradient>
	<polygon fill="url(#SVGID_1_)" points="292.3,293.4 351.3,278.1 342.3,331.8 	"/>
	<linearGradient id="SVGID_2_" gradientUnits="userSpaceOnUse" x1="332.7065" y1="337.2127" x2="418.1338" y2="337.2127">
		<stop  offset="0" style="stop-color:#1ABC9C"/>
		<stop  offset="1" style="stop-color:#000000"/>
	</linearGradient>
	<polygon fill="url(#SVGID_2_)" points="351.3,278.1 332.7,396.3 418.1,328.1 	"/>
	<linearGradient id="SVGID_3_" gradientUnits="userSpaceOnUse" x1="332.7065" y1="343.0511" x2="494.9553" y2="343.0511">
		<stop  offset="0" style="stop-color:#1ABC9C"/>
		<stop  offset="1" style="stop-color:#000000"/>
	</linearGradient>
	<polygon fill="url(#SVGID_3_)" points="332.7,396.3 495,266.8 451.8,419.3 	"/>
	<linearGradient id="SVGID_4_" gradientUnits="userSpaceOnUse" x1="332.7065" y1="458.7778" x2="457.2457" y2="458.7778">
		<stop  offset="0" style="stop-color:#1ABC9C"/>
		<stop  offset="1" style="stop-color:#000000"/>
	</linearGradient>
	<polygon fill="url(#SVGID_4_)" points="332.7,396.3 457.2,521.3 451.8,419.3 	"/>
	<linearGradient id="SVGID_5_" gradientUnits="userSpaceOnUse" x1="451.7647" y1="456.793" x2="561.1838" y2="456.793">
		<stop  offset="0" style="stop-color:#1ABC9C"/>
		<stop  offset="1" style="stop-color:#000000"/>
	</linearGradient>
	<polygon fill="url(#SVGID_5_)" points="455.8,494.3 561.2,486.2 451.8,419.3 	"/>
	<linearGradient id="SVGID_6_" gradientUnits="userSpaceOnUse" x1="451.7647" y1="316.7238" x2="638.4496" y2="316.7238">
		<stop  offset="0" style="stop-color:#1ABC9C"/>
		<stop  offset="1" style="stop-color:#000000"/>
	</linearGradient>
	<polygon fill="url(#SVGID_6_)" points="451.8,419.3 638.4,214.1 495,266.8 	"/>
	<linearGradient id="SVGID_7_" gradientUnits="userSpaceOnUse" x1="455.7936" y1="544.0625" x2="609.0875" y2="544.0625">
		<stop  offset="0" style="stop-color:#1ABC9C"/>
		<stop  offset="1" style="stop-color:#000000"/>
	</linearGradient>
	<polygon fill="url(#SVGID_7_)" points="526.1,488.9 609.1,599.3 456.8,513.1 455.8,494.3 	"/>
	<linearGradient id="SVGID_8_" gradientUnits="userSpaceOnUse" x1="456.8072" y1="609.7877" x2="594.4897" y2="609.7877">
		<stop  offset="0" style="stop-color:#1ABC9C"/>
		<stop  offset="1" style="stop-color:#000000"/>
	</linearGradient>
	<polygon fill="url(#SVGID_8_)" points="559.5,570.9 594.5,706.5 457.2,521.3 456.8,513.1 	"/>
</g>
<g>
	<linearGradient id="SVGID_9_" gradientUnits="userSpaceOnUse" x1="70.7168" y1="535.256" x2="70.7168" y2="614.0431">
		<stop  offset="0" style="stop-color:#1ABC9C"/>
		<stop  offset="1" style="stop-color:#000000"/>
	</linearGradient>
	<path fill="url(#SVGID_9_)" d="M110.1,574.6c0,10.9-3.8,20.2-11.5,27.9c-7.7,7.7-17,11.5-27.9,11.5c-10.9,0-20.2-3.8-27.9-11.5
		c-7.7-7.7-11.5-17-11.5-27.9s3.8-20.2,11.5-27.9c7.7-7.7,17-11.5,27.9-11.5c10.9,0,20.2,3.8,27.9,11.5
		C106.3,554.5,110.1,563.8,110.1,574.6z M106.2,574.6c0-9.8-3.5-18.1-10.4-25.1c-6.9-6.9-15.3-10.4-25.1-10.4
		c-9.8,0-18.2,3.5-25.1,10.4c-6.9,6.9-10.4,15.3-10.4,25.1c0,9.8,3.5,18.1,10.4,25.1c6.9,6.9,15.3,10.4,25.1,10.4
		c9.8,0,18.2-3.5,25.1-10.4C102.8,592.8,106.2,584.4,106.2,574.6z"/>
	<linearGradient id="SVGID_10_" gradientUnits="userSpaceOnUse" x1="143.9553" y1="535.2559" x2="143.9553" y2="614.0988">
		<stop  offset="0" style="stop-color:#1ABC9C"/>
		<stop  offset="1" style="stop-color:#000000"/>
	</linearGradient>
	<path fill="url(#SVGID_10_)" d="M166.7,612.1c0,1.3-0.7,2-2,2c-0.5,0-1-0.2-1.4-0.6l-33-33.1c-0.6-0.6-0.9-1.1-0.9-1.6
		c0-1.3,0.8-2,2.4-2H144c5.2,0,9.6-1.8,13.3-5.5c3.7-3.7,5.5-8.1,5.5-13.3c0-5.2-1.9-9.6-5.5-13.3c-3.7-3.7-8.1-5.5-13.3-5.5h-18.9
		v73c0,1.3-0.6,1.9-1.9,1.9c-1.3,0-1.9-0.6-1.9-1.9v-75.1c0-1.2,0.6-1.8,1.9-1.8H144c6.3,0,11.7,2.2,16.1,6.7
		c4.4,4.4,6.7,9.8,6.7,16.1s-2.2,11.7-6.7,16.1s-9.8,6.7-16.1,6.7h-7.8l30,30C166.5,611.1,166.7,611.6,166.7,612.1z"/>
	<linearGradient id="SVGID_11_" gradientUnits="userSpaceOnUse" x1="179.7969" y1="535.256" x2="179.7969" y2="614.0431">
		<stop  offset="0" style="stop-color:#1ABC9C"/>
		<stop  offset="1" style="stop-color:#000000"/>
	</linearGradient>
	<path fill="url(#SVGID_11_)" d="M181.7,612.1c0,1.3-0.6,1.9-1.9,1.9c-1.3,0-1.9-0.6-1.9-1.9v-74.9c0-1.3,0.6-1.9,1.9-1.9
		c1.3,0,1.9,0.6,1.9,1.9V612.1z"/>
	<linearGradient id="SVGID_12_" gradientUnits="userSpaceOnUse" x1="226.7908" y1="535.256" x2="226.7908" y2="614.0431">
		<stop  offset="0" style="stop-color:#1ABC9C"/>
		<stop  offset="1" style="stop-color:#000000"/>
	</linearGradient>
	<path fill="url(#SVGID_12_)" d="M260.7,548.1c0,1.3-0.7,2-2,2c-0.4,0-0.9-0.2-1.4-0.6c-8.1-6.9-16.4-10.3-25.1-10.3
		c-9.8,0-18.2,3.5-25.1,10.4c-6.9,6.9-10.4,15.3-10.4,25.1c0,9.8,3.5,18.1,10.4,25.1c6.9,6.9,15.3,10.4,25.1,10.4
		c9.5,0,17.7-3.3,24.5-9.8v-25.7c0-1.3,0.6-1.9,1.9-1.9c1.3,0,1.9,0.6,1.9,1.9v26.5c0,0.5-0.2,0.9-0.6,1.3
		c-3.1,3.6-7.4,6.4-12.8,8.5c-5.1,2-10.1,3-15.1,3c-10.9,0-20.2-3.8-27.9-11.5c-7.7-7.7-11.5-17-11.5-27.9s3.8-20.2,11.5-27.9
		c7.7-7.7,17-11.5,27.8-11.5c11.2,0,20.5,3.8,27.8,11.5C260.5,547.2,260.7,547.6,260.7,548.1z"/>
	<linearGradient id="SVGID_13_" gradientUnits="userSpaceOnUse" x1="308.4331" y1="535.2559" x2="308.4331" y2="614.0431">
		<stop  offset="0" style="stop-color:#1ABC9C"/>
		<stop  offset="1" style="stop-color:#000000"/>
	</linearGradient>
	<path fill="url(#SVGID_13_)" d="M347.9,612.2c0,1.3-0.7,1.9-2.1,1.9c-0.7,0-1.3-0.3-1.7-1l-11.9-23.9l-0.2,0h-47.3L272.7,613
		c-0.4,0.7-0.9,1-1.7,1c-1.4,0-2.1-0.6-2.1-1.9c0-0.4,5.8-12.3,17.3-35.5c11.5-23.1,18.2-36.4,20.2-40c0.5-0.9,1.1-1.4,1.9-1.4
		c0.8,0,1.4,0.5,1.9,1.4c2,3.6,8.7,16.9,20.2,40C342.1,599.9,347.9,611.7,347.9,612.2z M330.2,585.1l-21.8-43.6l-21.8,43.6H330.2z"
		/>
	<linearGradient id="SVGID_14_" gradientUnits="userSpaceOnUse" x1="396.9585" y1="535.2559" x2="396.9585" y2="614.0431">
		<stop  offset="0" style="stop-color:#1ABC9C"/>
		<stop  offset="1" style="stop-color:#000000"/>
	</linearGradient>
	<path fill="url(#SVGID_14_)" d="M440.5,612.2c0,1.3-0.7,1.9-2,1.9c-1,0-1.6-0.5-1.8-1.5l-15.3-69l-22.5,52.4
		c-0.4,1-1.1,1.5-1.9,1.5c-0.9,0-1.5-0.5-1.9-1.5l-22.4-52.4l-15.4,69c-0.2,1-0.8,1.5-1.8,1.5c-1.3,0-2-0.6-2-1.9
		c0-0.2,0-0.4,0.1-0.5l16.6-74.6c0.3-1.2,0.9-1.8,2-1.8c0.8,0,1.4,0.5,1.9,1.5l23.1,53.8l23.1-53.8c0.4-1,1-1.5,1.9-1.5
		c1,0,1.7,0.6,2,1.8l16.5,74.6C440.5,611.8,440.5,612,440.5,612.2z"/>
	<linearGradient id="SVGID_15_" gradientUnits="userSpaceOnUse" x1="453.5517" y1="535.256" x2="453.5518" y2="614.0431">
		<stop  offset="0" style="stop-color:#1ABC9C"/>
		<stop  offset="1" style="stop-color:#000000"/>
	</linearGradient>
	<path fill="url(#SVGID_15_)" d="M455.5,612.1c0,1.3-0.6,1.9-1.9,1.9c-1.3,0-1.9-0.6-1.9-1.9v-74.9c0-1.3,0.6-1.9,1.9-1.9
		c1.3,0,1.9,0.6,1.9,1.9V612.1z"/>
</g>
</svg>
