<?xml version="1.0" encoding="utf-8"?>
<!-- Generator: Adobe Illustrator 18.1.0, SVG Export Plug-In . SVG Version: 6.00 Build 0)  -->
<svg version="1.1" id="pitipoulpe" xmlns="http://www.w3.org/2000/svg" xmlns:xlink="http://www.w3.org/1999/xlink" x="0px" y="0px"
	 viewBox="0 0 500 500" enable-background="new 0 0 500 500" xml:space="preserve">
<g>
	<path id="t2" fill="#FFFFFF" d="M211.7,359.1h-8.5c-4.5,0-8.1-3.7-8.1-8.1v-73.8c0-4.5,3.7-8.1,8.1-8.1h8.5c4.5,0,8.1,3.7,8.1,8.1
		V351C219.8,355.4,216.2,359.1,211.7,359.1z"/>
	<path id="t3" fill="#FFFFFF" d="M293.4,465.9h-8.5c-4.5,0-8.1-3.7-8.1-8.1V277.2c0-4.5,3.7-8.1,8.1-8.1h8.5c4.5,0,8.1,3.7,8.1,8.1
		v180.7C301.5,462.3,297.9,465.9,293.4,465.9z"/>
	<path id="t1" fill="#FFFFFF" d="M387.6,138C387.6,62,326,0.4,250,0.4S112.4,62,112.4,138c0,2.4,0,197.6,0,197.6
		c0,6.8,5.4,12.4,12.2,12.4s12.2-5.6,12.2-12.4c0,0,0-196.1,0-197.6c0-62.4,50.8-113.2,113.2-113.2S363.2,75.6,363.2,138
		c0,1.6-0.3,163.7-0.3,163.7c0,6.8,5.4,12.4,12.2,12.4s12.2-5.6,12.2-12.4C387.3,301.7,387.6,140.4,387.6,138z"/>
	<circle fill="#FFFFFF" cx="206.2" cy="121.4" r="13.4"/>
	<path fill="#FFFFFF" d="M261.7,163.3h-21.9c-2.3,0-4.5-2.6-4.5-4.8c0-2.3,1.9-4.8,4.5-4.8h21.9c2.3,0,4.5,2.6,4.5,4.8
		C266.3,160.8,264,163.3,261.7,163.3z"/>
	<circle fill="#FFFFFF" cx="288.6" cy="121.4" r="13.4"/>
</g>
</svg>
