<svg xmlns="http://www.w3.org/2000/svg" viewBox="0 0 640 960"><path d="M319.9 798c-84.9 0-164.8-33.1-224.8-93.1C35.2 644.8 2 564.9 2 479.9s33.1-164.8 93.1-224.8S235 162 319.9 162s164.8 33.1 224.8 93.1c60.1 60.1 93.1 139.9 93.1 224.8s-33.1 164.8-93.1 224.8C484.8 764.8 404.9 798 319.9 798zm0-614.5c-79.2 0-153.6 30.9-209.6 86.9S23.4 400.8 23.4 480.1s30.9 153.6 86.9 209.6c56 56 130.4 86.9 209.6 86.9s153.6-30.9 209.6-86.9c56-56 86.9-130.4 86.9-209.6s-30.9-153.6-86.9-209.6-130.3-87-209.6-87z"/><path d="M260.7 612.1c-17.4 0-33.8-7.5-45.5-19.4-22.8-23.1-29.2-63.5 2.8-95.9 18.8-19 93.9-95.1 131.4-133 13.3-13.5 30.3-18.7 46.5-14.3 15.9 4.3 29 17.5 33.3 33.7 4.3 16.4-.8 33.6-14.1 47.1L289.3 557.4c-7.2 7.3-15.3 11.6-23.4 12.4-8.1.9-15.8-1.8-21.2-7.2-9.8-9.9-11.2-28.5 5.1-45l88.3-89.4c3.6-3.7 9.5-3.7 13.1 0 3.6 3.7 3.6 9.6 0 13.3L262.9 531c-7.6 7.7-8.3 15.1-5.1 18.4 1.4 1.4 3.6 2.1 6.1 1.8 3.8-.4 8.2-2.9 12.3-7L401.9 417c8.6-8.7 11.9-19 9.3-28.9-2.6-9.8-10.5-17.8-20.1-20.4-9.8-2.7-20 .7-28.6 9.4-37.5 38-112.6 114.1-131.4 133-24.5 24.8-18.6 53.3-2.8 69.3s44 22 68.5-2.9l131.4-133c3.6-3.7 9.5-3.7 13.1 0 3.6 3.7 3.6 9.6 0 13.3l-131.4 133c-15.6 15.7-32.9 22.3-49.2 22.3z"/></svg>