<svg xmlns="http://www.w3.org/2000/svg" viewBox="0 0 595.3 841.9"><path d="M297.6 716.7c-79 0-153.3-30.8-209.1-86.6C32.7 574.2 1.9 499.9 1.9 420.9s30.8-153.3 86.6-209.1 130.1-86.6 209.1-86.6 153.3 30.8 209.1 86.6c55.9 55.9 86.6 130.1 86.6 209.1S562.5 574.2 506.7 630c-55.8 55.9-130.1 86.7-209.1 86.7zm0-571.5c-73.7 0-142.9 28.7-195 80.8S21.8 347.3 21.8 421s28.7 142.9 80.8 195c52.1 52.1 121.3 80.8 195 80.8s142.9-28.7 195-80.8c52.1-52.1 80.8-121.3 80.8-195s-28.7-142.9-80.8-195c-52.1-52.1-121.3-80.8-195-80.8z"/><path d="M372.3 332.7h-42.9c-5.1 0-10.7 6.7-10.7 15.6v31h53.7l-8.1 44.2h-45.6v132.8H268V423.5h-46v-44.2h46v-26c0-37.3 25.9-67.7 61.4-67.7h42.9v47.1z"/></svg>