<svg xmlns="http://www.w3.org/2000/svg" viewBox="0 0 595.3 841.9"><path d="M297.6 716.7c-79 0-153.3-30.8-209.1-86.6C32.7 574.2 1.9 499.9 1.9 420.9s30.8-153.3 86.6-209.1 130.1-86.6 209.1-86.6 153.3 30.8 209.1 86.6c55.9 55.9 86.6 130.1 86.6 209.1S562.5 574.2 506.7 630c-55.8 55.9-130.1 86.7-209.1 86.7zm0-571.5c-73.7 0-142.9 28.7-195 80.8S21.8 347.3 21.8 421s28.7 142.9 80.8 195c52.1 52.1 121.3 80.8 195 80.8s142.9-28.7 195-80.8c52.1-52.1 80.8-121.3 80.8-195s-28.7-142.9-80.8-195c-52.1-52.1-121.3-80.8-195-80.8z"/><path d="M412.5 370.2c2.2-5.4 2.3-36.7-9.5-66.6 0 0-27.3 3-68.5 31.3-8.7-2.4-23.3-3.6-37.9-3.6s-29.3 1.2-37.9 3.6c-41.2-28.3-68.5-31.3-68.5-31.3-11.8 29.9-11.7 61.1-9.5 66.6-14 15.2-22.5 33.4-22.5 58.2 0 108 89.6 109.8 112.3 109.8 5.1 0 15.3 0 26.1.1 10.8-.1 21-.1 26.1-.1 22.6 0 112.3-1.7 112.3-109.8 0-24.9-8.5-43.1-22.5-58.2zM297.1 524.9h-.9c-56.7 0-100.9-6.8-100.9-61.9-.2-13.6 5.5-26.6 15.7-35.6 18.5-17 49.7-8 85.2-8h.9c35.4 0 66.7-9 85.2 8 11 10.1 15.7 22.4 15.7 35.6 0 55.1-44.2 61.9-100.9 61.9z"/><path d="M248.8 494.8c-10.8 0-19.5-12.1-19.5-27.1s8.7-27 19.5-27 19.6 12.1 19.6 27-8.8 27.1-19.6 27.1zm95.6 0c-10.8 0-19.6-12.1-19.6-27.1s8.8-27 19.6-27 19.5 12.1 19.5 27c.1 14.9-8.7 27.1-19.5 27.1z"/></svg>