<svg xmlns="http://www.w3.org/2000/svg" viewBox="0 0 595.3 841.9"><path d="M297.6 716.7c-79 0-153.3-30.8-209.1-86.6C32.7 574.2 1.9 499.9 1.9 420.9s30.8-153.3 86.6-209.1 130.1-86.6 209.1-86.6 153.3 30.8 209.1 86.6c55.9 55.9 86.6 130.1 86.6 209.1S562.5 574.2 506.7 630c-55.8 55.9-130.1 86.7-209.1 86.7zm0-571.5c-73.7 0-142.9 28.7-195 80.8S21.8 347.3 21.8 421s28.7 142.9 80.8 195c52.1 52.1 121.3 80.8 195 80.8s142.9-28.7 195-80.8c52.1-52.1 80.8-121.3 80.8-195s-28.7-142.9-80.8-195c-52.1-52.1-121.3-80.8-195-80.8z"/><path d="M183.5 355.2h57.9v186.2h-57.9zm28.5-22.9c-18.3 0-30.1-12.9-30.1-29 0-16.3 12.2-28.9 30.8-28.9s30.1 12.6 30.4 28.9c.1 16.1-11.6 29-31.1 29zm240.7 209.1h-57.9V438.2c0-24-8.4-40.3-29.3-40.3-16 0-25.5 11-29.7 21.7-1.5 3.8-1.9 9.1-1.9 14.5v107.4H276V414.6c0-23.2-.7-42.7-1.5-59.4h50.3l2.6 25.9h1.2c7.6-12.1 26.3-30.1 57.5-30.1 38.1 0 66.6 25.5 66.6 80.3v110.1z"/></svg>