<svg xmlns="http://www.w3.org/2000/svg" viewBox="0 0 595.3 841.9"><path d="M297.6 716.7c-79 0-153.3-30.8-209.1-86.6C32.7 574.2 1.9 499.9 1.9 420.9s30.8-153.3 86.6-209.1 130.1-86.6 209.1-86.6 153.3 30.8 209.1 86.6c55.9 55.9 86.6 130.1 86.6 209.1S562.5 574.2 506.7 630c-55.8 55.9-130.1 86.7-209.1 86.7zm0-571.5c-73.7 0-142.9 28.7-195 80.8S21.8 347.3 21.8 421s28.7 142.9 80.8 195c52.1 52.1 121.3 80.8 195 80.8s142.9-28.7 195-80.8c52.1-52.1 80.8-121.3 80.8-195s-28.7-142.9-80.8-195-121.3-80.8-195-80.8z"/><path d="M248.8 494.8c-10.8 0-19.5-12.1-19.5-27.1 0-15 8.7-27 19.5-27s19.6 12.1 19.6 27-8.8 27.1-19.6 27.1zm95.6 0c-10.8 0-19.6-12.1-19.6-27.1 0-15 8.8-27 19.6-27s19.5 12.1 19.5 27c.1 14.9-8.7 27.1-19.5 27.1z"/><path d="M296.6 261.5c-88 0-159.5 71.6-159.5 159.5s71.5 159.5 159.5 159.5c87.9 0 159.5-71.6 159.5-159.5s-71.6-159.5-159.5-159.5zm136 159.4c0 31.1-10.6 59.8-28.2 82.7-5-3.9-10.3-14.4-5.3-25.3 5-11 6.3-36.3 5.2-46.2-1.1-9.9-6.2-33.6-20.2-33.9-13.9-.2-23.5-4.8-31.7-21.3-17.2-34.4 32.2-41 15.1-60-4.8-5.3-29.6 22-33.3-14.4-.2-2.6 2.2-6.5 5.6-10.6 53.9 18.2 92.8 69.2 92.8 129zM277.9 286.3c-3.3 6.3-11.8 8.9-17.1 13.7-11.4 10.3-16.2 8.9-22.4 18.7-6.2 9.9-26 24.1-26 31.2s10 15.5 15.1 13.9c5-1.7 18.3-1.6 26 1.2 7.8 2.8 65 5.5 46.8 53.9-5.8 15.4-31.1 12.8-37.9 38.3-1 3.7-4.5 19.7-4.7 24.9-.4 8.1 5.7 38.5-2.1 38.5-7.8 0-28.9-27.2-28.9-32.2 0-4.9-5.4-22.2-5.4-37s-25.2-14.6-25.2-34.3c0-17.7 13.7-26.6 10.6-35.1-3-8.5-27-8.8-37-9.8 17.5-45.4 58.6-79.1 108.2-85.9zM253.8 550c8.2-4.3 9-9.9 16.4-10.2 8.5-.4 15.4-3.3 24.9-5.4 8.5-1.8 23.6-10.4 37-11.5 11.3-.9 33.5.6 39.5 11.4-21.5 14.3-47.3 22.6-75 22.6-15 .1-29.3-2.4-42.8-6.9z"/></svg>